<?xml version="1.0" standalone="no"?>
<!DOCTYPE svg PUBLIC "-//W3C//DTD SVG 20010904//EN"
 "http://www.w3.org/TR/2001/REC-SVG-20010904/DTD/svg10.dtd">
<svg version="1.0" xmlns="http://www.w3.org/2000/svg"
 width="512.000000pt" height="512.000000pt" viewBox="0 0 512.000000 512.000000"
 preserveAspectRatio="xMidYMid meet">
<metadata>
Created by potrace 1.14, written by Peter Selinger 2001-2017
</metadata>
<g transform="translate(0.000000,512.000000) scale(0.100000,-0.100000)"
fill="#000000" stroke="none">
<path d="M1767 5110 c-119 -30 -222 -123 -268 -243 l-22 -57 -597 0 c-574 0
-599 -1 -621 -19 l-24 -19 -3 -881 -2 -882 25 -25 c33 -33 80 -30 107 6 18 24
18 60 18 848 l0 822 431 0 431 0 -22 -36 c-13 -19 -28 -54 -35 -77 l-12 -42
-291 -5 c-283 -5 -292 -6 -313 -27 l-22 -22 0 -2047 0 -2047 27 -24 27 -23
1407 0 c774 0 1417 3 1430 6 54 15 51 -103 51 2089 0 1777 -2 2031 -15 2056
-8 16 -16 30 -17 31 -1 1 -136 4 -300 7 l-299 6 -17 51 c-10 28 -26 63 -36 77
l-17 27 431 0 431 0 0 -2255 0 -2255 -1635 0 -1635 0 0 1292 0 1291 -22 24
c-30 33 -80 31 -107 -3 l-21 -27 0 -1337 0 -1337 25 -27 24 -26 1736 0 1736 0
23 24 24 23 -2 2362 -1 2363 -24 19 c-22 18 -47 19 -621 19 l-598 0 -21 58
c-37 99 -104 170 -211 221 -54 25 -59 26 -285 28 -126 1 -247 -2 -268 -7z
m475 -152 c85 -25 148 -108 163 -213 8 -54 30 -73 103 -90 135 -32 197 -109
204 -255 l3 -55 -284 -1 -284 -1 -24 -27 c-27 -32 -25 -69 7 -100 20 -20 31
-21 351 -22 400 -1 384 -7 388 134 l1 22 233 0 234 0 0 -1945 0 -1945 -1318 0
-1319 0 -1 23 c-1 29 -1 3780 0 3830 l1 37 233 0 233 0 -3 -37 c-5 -61 13
-100 50 -112 19 -5 166 -9 349 -8 312 2 318 2 339 24 29 28 29 77 1 105 -20
20 -30 21 -304 22 l-283 1 0 30 c-2 96 37 199 90 239 34 27 94 46 141 46 43 0
73 36 81 96 3 27 14 66 24 86 22 44 83 97 130 114 46 17 407 18 461 2z"/>
<path d="M1965 4785 c-14 -13 -25 -36 -25 -50 0 -33 42 -75 75 -75 33 0 75 42
75 75 0 33 -42 75 -75 75 -14 0 -37 -11 -50 -25z"/>
<path d="M1508 3862 c-13 -8 -25 -17 -28 -20 -3 -2 -5 -226 -6 -497 l-1 -494
22 -28 23 -28 496 0 496 1 22 22 23 23 1 482 c0 265 -4 494 -9 509 -6 18 -19
30 -40 37 -19 6 -223 9 -504 9 -410 0 -475 -2 -495 -16z m273 -139 c1 -5 2
-60 4 -123 1 -63 3 -123 4 -132 0 -10 12 -25 26 -34 25 -16 111 -20 352 -15
67 1 77 26 78 180 l1 126 80 3 80 3 0 -390 c0 -264 -4 -391 -11 -392 -28 -3
-751 -4 -760 -2 -7 2 -10 135 -9 381 1 207 2 383 3 390 1 13 150 18 152 5z
m314 -73 l1 -75 -31 -5 c-16 -3 -53 -4 -81 -2 l-51 4 3 76 c1 42 2 78 3 80 1
1 36 1 78 0 l77 -3 1 -75z"/>
<path d="M1186 2318 c-136 -29 -214 -188 -155 -318 73 -161 289 -183 391 -40
124 171 -28 402 -236 358z m106 -165 c26 -23 32 -70 13 -99 -45 -69 -144 -40
-145 43 0 64 82 99 132 56z"/>
<path d="M1655 2145 c-34 -33 -33 -77 1 -104 26 -21 34 -21 669 -21 635 0 643
0 669 21 36 28 36 80 0 108 -26 21 -34 21 -671 21 l-644 0 -24 -25z"/>
<path d="M1197 1698 c-209 -44 -256 -316 -74 -422 196 -114 422 99 318 302
-46 89 -150 140 -244 120z m92 -165 c33 -28 37 -75 9 -107 -55 -63 -137 -28
-138 58 0 54 84 86 129 49z"/>
<path d="M1673 1540 c-47 -19 -57 -83 -19 -119 l24 -22 647 -1 646 0 25 23
c31 29 31 72 0 104 l-25 24 -638 0 c-351 0 -648 -4 -660 -9z"/>
<path d="M1145 1061 c-175 -82 -182 -325 -11 -413 30 -16 60 -22 107 -22 57 0
74 4 115 30 30 18 60 48 79 78 74 121 8 299 -125 336 -54 15 -121 11 -165 -9z
m139 -147 c72 -46 16 -159 -68 -138 -58 14 -77 96 -30 133 32 25 66 27 98 5z"/>
<path d="M1674 917 c-50 -26 -58 -80 -19 -117 l25 -23 627 0 c346 1 637 2 649
2 55 2 82 76 45 122 l-19 24 -645 1 c-402 1 -652 -3 -663 -9z"/>
<path d="M4199 3866 c-106 -37 -160 -120 -160 -241 0 -42 -4 -55 -15 -55 -8 0
-26 -11 -39 -25 l-25 -24 0 -491 0 -491 24 -24 c18 -18 32 -23 57 -20 62 8 64
14 67 245 l3 210 159 0 159 0 -2 -582 -2 -583 -157 -1 -158 -1 0 233 c0 272
-5 291 -75 299 -18 2 -62 -24 -69 -40 -3 -9 -6 -373 -6 -809 0 -860 -2 -826
54 -840 25 -6 25 -6 24 -129 0 -67 3 -138 7 -157 12 -60 47 -109 100 -145 51
-33 51 -34 49 -81 -2 -26 4 -60 12 -75 27 -53 117 -46 131 9 3 14 6 46 6 73 1
43 4 49 29 60 33 14 95 79 109 116 16 42 17 61 18 193 l1 125 31 14 c17 7 34
24 39 37 5 13 9 511 9 1131 0 609 0 1118 0 1131 1 20 6 22 55 22 38 0 61 -6
77 -19 l24 -19 5 -425 c5 -400 6 -426 24 -446 26 -29 71 -27 101 4 l25 24 0
411 c0 282 -4 426 -12 458 -8 33 -25 60 -58 93 -53 53 -95 69 -182 69 -39 0
-58 4 -59 13 0 6 0 95 0 197 0 102 -3 195 -6 208 -5 23 -55 57 -67 45 -3 -4
-6 14 -7 38 -1 113 -17 159 -73 212 -60 56 -156 78 -227 53z m128 -170 c17
-20 23 -39 23 -76 l0 -49 -37 -3 c-21 -2 -57 -1 -80 1 l-43 3 0 52 c0 29 6 59
13 68 34 43 89 44 124 4z m98 -436 l0 -155 -157 -3 -158 -3 0 160 0 160 158
-2 157 -2 0 -155z m-33 -1629 l37 -1 0 -430 1 -430 -160 0 -160 0 0 429 c0
394 1 430 17 433 14 3 91 2 265 -1z m-44 -1146 c-3 -121 -5 -137 -24 -155 -29
-29 -78 -29 -109 0 -24 23 -25 28 -25 157 l0 133 81 0 81 0 -4 -135z"/>
</g>
</svg>
